<?xml version="1.0" encoding="UTF-8"?>
<svg id="Capa_1" xmlns="http://www.w3.org/2000/svg" version="1.1" viewBox="0 0 16 16">
  <!-- Generator: Adobe Illustrator 30.1.0, SVG Export Plug-In . SVG Version: 2.1.1 Build 136)  -->
  <path d="M11,8c1.1,0,2-.9,2-2s-.9-2-2-2-2,.9-2,2,.9,2,2,2M5,5.5c0,.28-.22.5-.5.5H.5C.22,6,0,5.78,0,5.5c0-.28.22-.5.5-.5h4c.28,0,.5.22.5.5M5,8c0,.28-.22.5-.5.5H.5c-.28,0-.5-.22-.5-.5s.22-.5.5-.5h4c.28,0,.5.22.5.5M5,10.5c0,.28-.28.5-.63.5H.62C.28,11,0,10.78,0,10.5s.28-.5.63-.5h3.75c.35,0,.62.22.62.5M4.5,2.5c.28,0,.5.22.5.5v4c0,.28-.22.5-.5.5s-.5-.22-.5-.5v-4c0-.28.22-.5.5-.5M4.5,6.47c.28,0,.5.22.5.5v4c0,.28-.22.5-.5.5s-.5-.22-.5-.5v-4c0-.28.22-.5.5-.5M4.5,8.5c.28,0,.5.22.5.5v4c0,.28-.22.5-.5.5s-.5-.22-.5-.5v-4c0-.28.22-.5.5-.5"/>
  <path d="M2,2C.9,2,0,2.9,0,4v8c0,1.1.9,2,2,2h12c1.1,0,2-.9,2-2V4c0-1.1-.9-2-2-2H2ZM15,12c0,.06,0,.12-.02.18-.18-1.78-1.9-3.18-3.98-3.18-2.21,0-4,1.57-4,3.5,0,.17.01.34.04.5H2c-.55,0-1-.45-1-1V4c0-.55.45-1,1-1h12c.55,0,1,.45,1,1v8Z"/>
</svg>