<?xml version="1.0" encoding="UTF-8"?>
<svg id="Capa_1" xmlns="http://www.w3.org/2000/svg" version="1.1" viewBox="0 0 16 16">
  <!-- Generator: Adobe Illustrator 30.1.0, SVG Export Plug-In . SVG Version: 2.1.1 Build 136)  -->
  <path d="M13.25,9c-.14,0-.25.11-.25.25v.5c0,.14.11.25.25.25h.5c.14,0,.25-.11.25-.25v-.5c0-.14-.11-.25-.25-.25h-.5ZM13,11.25c0-.14.11-.25.25-.25h.5c.14,0,.25.11.25.25v.5c0,.14-.11.25-.25.25h-.5c-.14,0-.25-.11-.25-.25v-.5ZM13.25,13c-.14,0-.25.11-.25.25v.5c0,.14.11.25.25.25h.5c.14,0,.25-.11.25-.25v-.5c0-.14-.11-.25-.25-.25h-.5ZM2.25,9c-.14,0-.25.11-.25.25v.5c0,.14.11.25.25.25h.5c.14,0,.25-.11.25-.25v-.5c0-.14-.11-.25-.25-.25h-.5ZM2.25,11c-.14,0-.25.11-.25.25v.5c0,.14.11.25.25.25h.5c.14,0,.25-.11.25-.25v-.5c0-.14-.11-.25-.25-.25h-.5ZM2,13.25c0-.14.11-.25.25-.25h.5c.14,0,.25.11.25.25v.5c0,.14-.11.25-.25.25h-.5c-.14,0-.25-.11-.25-.25v-.5ZM6.38,4.25c-.14,0-.25.11-.25.25v.5c0,.14.11.25.25.25h.5c.14,0,.25-.11.25-.25v-.5c0-.14-.11-.25-.25-.25h-.5ZM6.38,6.25c-.14,0-.25.11-.25.25v.5c0,.14.11.25.25.25h.5c.14,0,.25-.11.25-.25v-.5c0-.14-.11-.25-.25-.25h-.5ZM6.13,8.5c0-.14.11-.25.25-.25h.5c.14,0,.25.11.25.25v.5c0,.14-.11.25-.25.25h-.5c-.14,0-.25-.11-.25-.25v-.5ZM9.25,4.25c-.14,0-.25.11-.25.25v.5c0,.14.11.25.25.25h.5c.14,0,.25-.11.25-.25v-.5c0-.14-.11-.25-.25-.25h-.5ZM9.25,6.25c-.14,0-.25.11-.25.25v.5c0,.14.11.25.25.25h.5c.14,0,.25-.11.25-.25v-.5c0-.14-.11-.25-.25-.25h-.5ZM9,8.5c0-.14.11-.25.25-.25h.5c.14,0,.25.11.25.25v.5c0,.14-.11.25-.25.25h-.5c-.14,0-.25-.11-.25-.25v-.5Z"/>
  <path d="M5,1C5,.45,5.45,0,6,0h4C10.55,0,11,.45,11,1v1c.55,0,1,.45,1,1v4h3c.55,0,1,.45,1,1v7c0,.55-.45,1-1,1H1c-.55,0-1-.45-1-1v-7c0-.55.45-1,1-1h3V3c0-.55.45-1,1-1V1ZM7,15h2v-3h-2v3ZM10,15h1V3h-6v12h1v-3c0-.55.45-1,1-1h2c.55,0,1,.45,1,1v3ZM10,1h-4v1h4V1ZM12,8v7h3v-7h-3ZM4,15v-7H1v7h3Z"/>
</svg>