<?xml version="1.0" encoding="UTF-8"?>
<svg id="Capa_1" xmlns="http://www.w3.org/2000/svg" version="1.1" viewBox="0 0 16 16">
  <!-- Generator: Adobe Illustrator 30.1.0, SVG Export Plug-In . SVG Version: 2.1.1 Build 136)  -->
  <defs>
    <style>
      .st0 {
        isolation: isolate;
      }

      .st1 {
        fill: #fff;
        stroke: #fff;
        stroke-miterlimit: 10;
        stroke-width: .25px;
      }
    </style>
  </defs>
  <path d="M12.5,16c1.93,0,3.5-1.57,3.5-3.5s-1.57-3.5-3.5-3.5-3.5,1.57-3.5,3.5,1.57,3.5,3.5,3.5M11,5c0,1.66-1.34,3-3,3s-3-1.34-3-3,1.34-3,3-3,3,1.34,3,3M8,7c1.1,0,2-.9,2-2s-.9-2-2-2-2,.9-2,2,.9,2,2,2"/>
  <path d="M8.26,14c-.11-.32-.19-.66-.23-1H3c0-.25.15-.99.83-1.66.65-.65,1.88-1.33,4.17-1.33.26,0,.51,0,.74.02.23-.34.5-.65.8-.92-.47-.07-.98-.11-1.54-.11-5,0-6,3-6,4s1,1,1,1c0,0,5.26,0,5.26,0Z"/>
  <g class="st0">
    <path class="st1" d="M13.36,13.57l-.15-.38h-1.23l-.14.39c-.06.15-.1.25-.14.31-.04.05-.11.08-.2.08-.08,0-.15-.03-.2-.08-.06-.06-.09-.12-.09-.19,0-.04,0-.08.02-.13s.04-.11.07-.18l.77-1.97c.02-.06.05-.12.08-.2s.06-.14.1-.2c.04-.05.08-.09.14-.13.06-.03.13-.05.21-.05s.16.02.21.05c.06.03.1.07.14.12s.06.11.09.16c.02.06.05.14.09.23l.79,1.95c.06.15.09.26.09.32s-.03.13-.09.19-.13.09-.21.09c-.05,0-.09,0-.12-.03-.03-.02-.06-.04-.09-.07-.02-.03-.05-.08-.08-.14-.03-.06-.05-.12-.07-.16ZM12.14,12.73h.9l-.46-1.25-.45,1.25Z"/>
  </g>
</svg>