<?xml version="1.0" encoding="UTF-8"?>
<svg id="Capa_1" xmlns="http://www.w3.org/2000/svg" version="1.1" viewBox="0 0 16 16">
  <!-- Generator: Adobe Illustrator 30.1.0, SVG Export Plug-In . SVG Version: 2.1.1 Build 136)  -->
  <defs>
    <style>
      .st0 {
        fill: #fff;
        stroke: #fff;
        stroke-miterlimit: 10;
        stroke-width: .25px;
      }
    </style>
  </defs>
  <path d="M12.5,16c1.93,0,3.5-1.57,3.5-3.5s-1.57-3.5-3.5-3.5-3.5,1.57-3.5,3.5,1.57,3.5,3.5,3.5M11,5c0,1.66-1.34,3-3,3s-3-1.34-3-3,1.34-3,3-3,3,1.34,3,3M8,7c1.1,0,2-.9,2-2s-.9-2-2-2-2,.9-2,2,.9,2,2,2"/>
  <path d="M8.26,14c-.11-.32-.19-.66-.23-1H3c0-.25.15-.99.83-1.66.65-.65,1.88-1.33,4.17-1.33.26,0,.51,0,.74.02.23-.34.5-.65.8-.92-.47-.07-.98-.11-1.54-.11-5,0-6,3-6,4s1,1,1,1c0,0,5.26,0,5.26,0Z"/>
  <path class="st0" d="M12.74,13.91h-.95c-.14,0-.24-.03-.29-.09s-.08-.16-.08-.29v-2.33c0-.14.03-.24.09-.29s.16-.09.29-.09h1c.15,0,.28,0,.38.03.11.02.21.05.29.11.08.05.14.1.19.17s.1.14.13.22.05.17.05.25c0,.31-.15.54-.47.68.41.13.61.38.61.76,0,.18-.05.33-.13.47-.09.14-.21.25-.36.31-.09.04-.21.07-.33.08-.12.02-.27.02-.43.02h0ZM12.03,11.28v.81h.58c.16,0,.28-.02.36-.05.08-.03.15-.08.2-.17.04-.06.05-.12.05-.2,0-.16-.05-.26-.17-.31-.12-.05-.28-.08-.51-.08h-.51,0ZM12.69,12.54h-.65v.9h.67c.42,0,.64-.15.64-.46,0-.16-.05-.27-.16-.35s-.28-.11-.49-.11h0Z"/>
</svg>