<?xml version="1.0" encoding="UTF-8"?>
<svg id="Capa_1" xmlns="http://www.w3.org/2000/svg" version="1.1" viewBox="0 0 16 16">
  <!-- Generator: Adobe Illustrator 30.1.0, SVG Export Plug-In . SVG Version: 2.1.1 Build 136)  -->
  <defs>
    <style>
      .st0 {
        fill-rule: evenodd;
      }
    </style>
  </defs>
  <path class="st0" d="M14.97.97c.1.08.16.21.16.35v12.48c0,.21-.15.4-.36.44l-4.46.89c-.06.01-.12.01-.17,0l-4.37-.87-4.37.87c-.24.05-.48-.11-.52-.35,0-.03,0-.06,0-.09V2.2c0-.21.15-.4.36-.44l4.46-.89c.06-.01.12-.01.17,0l4.37.87,4.37-.87c.13-.03.27,0,.37.09M9.78,2.57l-3.57-.71v11.58l3.57.71V2.57ZM10.68,14.14l3.57-.71V1.86l-3.57.71v11.58ZM5.32,13.43V1.86l-3.57.71v11.58l3.57-.71Z"/>
</svg>