<?xml version="1.0" encoding="UTF-8"?>
<svg id="Capa_1" xmlns="http://www.w3.org/2000/svg" version="1.1" viewBox="0 0 16 16">
  <!-- Generator: Adobe Illustrator 30.1.0, SVG Export Plug-In . SVG Version: 2.1.1 Build 136)  -->
  <path d="M3.07,4.1c0-.19.15-.34.34-.34s.34.15.34.34v4.81c0,.19-.15.34-.34.34s-.34-.15-.34-.34v-4.81ZM4.44,4.1c0-.19.15-.34.34-.34s.34.15.34.34v4.81c0,.19-.15.34-.34.34s-.34-.15-.34-.34v-4.81ZM5.81,4.1c0-.19.15-.34.34-.34s.34.15.34.34v4.81c0,.19-.15.34-.34.34s-.34-.15-.34-.34v-4.81ZM7.19,4.1c0-.19.15-.34.34-.34h.69c.19,0,.34.15.34.34v4.81c0,.19-.15.34-.34.34h-.69c-.19,0-.34-.15-.34-.34v-4.81ZM9.25,4.1c0-.19.15-.34.34-.34s.34.15.34.34v4.81c0,.19-.15.34-.34.34s-.34-.15-.34-.34v-4.81Z"/>
  <path d="M11.74,10.34c2.12-2.9,1.49-6.96-1.4-9.09C7.45-.86,3.38-.24,1.26,2.66-.86,5.55-.24,9.62,2.66,11.74c2.29,1.68,5.4,1.68,7.69,0h0s.06.08.1.11l3.85,3.85c.39.39,1.02.39,1.41,0s.39-1.02,0-1.41l-3.85-3.85s-.07-.07-.11-.1h0ZM12,6.5c0,3.04-2.46,5.5-5.5,5.5S1,9.54,1,6.5,3.46,1,6.5,1s5.5,2.46,5.5,5.5"/>
</svg>