<?xml version="1.0" encoding="UTF-8"?>
<svg id="Capa_1" xmlns="http://www.w3.org/2000/svg" version="1.1" viewBox="0 0 16 16">
  <!-- Generator: Adobe Illustrator 30.1.0, SVG Export Plug-In . SVG Version: 2.1.1 Build 136)  -->
  <defs>
    <style>
      .st0 {
        stroke: #000;
        stroke-miterlimit: 10;
        stroke-width: .35px;
      }

      .st1 {
        fill-rule: evenodd;
      }
    </style>
  </defs>
  <path class="st0" d="M.19,3.17c0-.25.24-.45.53-.45h3.16c.29,0,.53.2.53.45v.45h.36c.16,0,.31.06.41.17l.52.56c.07.08.12.18.12.28v.65c0,.25-.24.45-.53.45h-.18c0,.33-.31.61-.7.61s-.7-.27-.7-.61h-1.75c0,.33-.31.61-.7.61s-.7-.27-.7-.6c0,0,0-.02,0-.03-.21-.06-.35-.24-.35-.43v-2.12ZM.64,5.42c.2-.29.63-.38.96-.2.1.05.18.13.24.21h1.94c.06-.09.15-.17.26-.22v-2.05c0-.08-.08-.15-.18-.15H.72c-.1,0-.18.07-.18.15v2.12c0,.06.04.11.1.14M4.4,5.13c.25,0,.48.12.61.3h.27c.1,0,.18-.07.18-.15v-.65s-.01-.07-.04-.09l-.52-.56s-.08-.06-.14-.06h-.36v1.21ZM1.24,5.44c-.19,0-.35.14-.35.3s.16.3.35.3.35-.14.35-.3-.16-.3-.35-.3M4.4,5.44c-.19,0-.35.14-.35.3s.16.3.35.3.35-.14.35-.3-.16-.3-.35-.3M3.79,5.74c0-.29.27-.53.61-.53s.61.24.61.53-.27.53-.61.53-.61-.24-.61-.53ZM.63,5.74c0-.29.27-.53.61-.53s.61.24.61.53-.27.53-.61.53-.61-.24-.61-.53Z"/>
  <path class="st1" d="M8.5,7.37h5.5c.28,0,.5.22.5.5v1c0,.28-.22.5-.5.5s-.5-.22-.5-.5v-.5h-5v.5c0,.28-.22.5-.5.5s-.5-.22-.5-.5v-.5H2.5v.5c0,.28-.22.5-.5.5s-.5-.22-.5-.5v-1c0-.28.22-.5.5-.5h5.5M1.5,11.37c-.28,0-.5.22-.5.5v1c0,.28.22.5.5.5h1c.28,0,.5-.22.5-.5v-1c0-.28-.22-.5-.5-.5h-1ZM7.5,11.37c-.28,0-.5.22-.5.5v1c0,.28.22.5.5.5h1c.28,0,.5-.22.5-.5v-1c0-.28-.22-.5-.5-.5h-1ZM13.5,11.37c-.28,0-.5.22-.5.5v1c0,.28.22.5.5.5h1c.28,0,.5-.22.5-.5v-1c0-.28-.22-.5-.5-.5h-1Z"/>
  <path d="M13.95,6.94s1.95-1.95,1.95-3.44c0-1.14-.88-2.06-1.95-2.06s-1.95.92-1.95,2.06c0,1.48,1.95,3.44,1.95,3.44M13.95,4.29c-.41,0-.75-.35-.75-.79s.33-.79.75-.79.75.35.75.79-.33.79-.75.79"/>
</svg>