<?xml version="1.0" encoding="UTF-8"?>
<svg id="Capa_1" xmlns="http://www.w3.org/2000/svg" version="1.1" viewBox="0 0 16 16">
  <!-- Generator: Adobe Illustrator 30.1.0, SVG Export Plug-In . SVG Version: 2.1.1 Build 136)  -->
  <path d="M8,8c1.45,0,2.63-1.18,2.63-2.63s-1.18-2.63-2.63-2.63-2.63,1.18-2.63,2.63,1.18,2.63,2.63,2.63M9.75,5.37c0,.97-.79,1.75-1.75,1.75s-1.75-.79-1.75-1.75.79-1.75,1.75-1.75,1.75.79,1.75,1.75M13.26,12.39c0,.88-.88.88-.88.88H3.61s-.88,0-.88-.88.88-3.51,5.26-3.51,5.26,2.63,5.26,3.51M12.39,12.38c0-.22-.14-.86-.73-1.46s-1.65-1.17-3.66-1.17-3.08.6-3.66,1.17c-.59.59-.73,1.24-.73,1.46h8.77Z"/>
  <path d="M1.5,1c-.28,0-.5.22-.5.5v3c0,.28-.22.5-.5.5s-.5-.22-.5-.5V1.5C0,.67.67,0,1.5,0h3C4.78,0,5,.22,5,.5s-.22.5-.5.5H1.5ZM11,.5C11,.22,11.22,0,11.5,0h3C15.33,0,16,.67,16,1.5v3c0,.28-.22.5-.5.5s-.5-.22-.5-.5V1.5c0-.28-.22-.5-.5-.5h-3c-.28,0-.5-.22-.5-.5M.5,11c.28,0,.5.22.5.5v3c0,.28.22.5.5.5h3c.28,0,.5.22.5.5s-.22.5-.5.5H1.5c-.83,0-1.5-.67-1.5-1.5h0v-3c0-.28.22-.5.5-.5M15.5,11c.28,0,.5.22.5.5v3c0,.83-.67,1.5-1.5,1.5h-3c-.28,0-.5-.22-.5-.5s.22-.5.5-.5h3c.28,0,.5-.22.5-.5v-3c0-.28.22-.5.5-.5"/>
</svg>